<svg width="1200" height="600" viewBox="0 0 1200 600" fill="none" xmlns="http://www.w3.org/2000/svg">
  <defs>
    <linearGradient id="bizSky" x1="0" y1="0" x2="1200" y2="600" gradientUnits="userSpaceOnUse">
      <stop stop-color="#1D1108"/>
      <stop offset="0.5" stop-color="#643118"/>
      <stop offset="1" stop-color="#D97706"/>
    </linearGradient>
    <radialGradient id="bizGlow" cx="0" cy="0" r="1" gradientUnits="userSpaceOnUse" gradientTransform="translate(960 134) rotate(122) scale(390 380)">
      <stop stop-color="#FED7AA" stop-opacity="0.56"/>
      <stop offset="1" stop-color="#FED7AA" stop-opacity="0"/>
    </radialGradient>
  </defs>

  <rect width="1200" height="600" fill="url(#bizSky)"/>
  <rect width="1200" height="600" fill="url(#bizGlow)"/>

  <g opacity="0.2" stroke="#FFEDD5" stroke-width="1.2">
    <path d="M96 486 H1112"/>
    <path d="M96 436 H1112"/>
    <path d="M96 386 H1112"/>
    <path d="M96 336 H1112"/>
    <path d="M96 286 H1112"/>
    <path d="M96 236 H1112"/>
    <path d="M96 186 H1112"/>
  </g>

  <g opacity="0.92">
    <rect x="132" y="186" width="492" height="260" rx="18" fill="#5A2D14" stroke="#FDBA74" stroke-opacity="0.34"/>
    <path d="M166 398 H594" stroke="#FED7AA" stroke-opacity="0.86" stroke-width="2.4"/>
    <path d="M166 364 H476" stroke="#FED7AA" stroke-opacity="0.64" stroke-width="2.2"/>
    <path d="M166 330 H544" stroke="#FED7AA" stroke-opacity="0.48" stroke-width="2.2"/>

    <rect x="194" y="250" width="100" height="114" rx="10" fill="#7C3B18"/>
    <rect x="308" y="220" width="100" height="144" rx="10" fill="#9A3F15"/>
    <rect x="422" y="268" width="100" height="96" rx="10" fill="#B45309"/>

    <path d="M194 250 L244 216 L294 250" stroke="#FDBA74" stroke-width="3"/>
    <path d="M308 220 L358 182 L408 220" stroke="#FDBA74" stroke-width="3"/>
    <path d="M422 268 L472 232 L522 268" stroke="#FDBA74" stroke-width="3"/>
  </g>

  <g opacity="0.9" transform="translate(692 194)">
    <rect x="0" y="0" width="384" height="240" rx="18" fill="#4A230F" stroke="#FDBA74" stroke-opacity="0.32"/>
    <path d="M30 190 L92 142 L156 162 L228 116 L302 136 L354 84" stroke="#FDBA74" stroke-width="4" stroke-linecap="round"/>
    <circle cx="92" cy="142" r="7" fill="#FED7AA"/>
    <circle cx="156" cy="162" r="7" fill="#FED7AA"/>
    <circle cx="228" cy="116" r="7" fill="#FED7AA"/>
    <circle cx="302" cy="136" r="7" fill="#FED7AA"/>
    <circle cx="354" cy="84" r="7" fill="#FED7AA"/>
  </g>

  <text x="124" y="114" fill="#FFF7ED" font-family="Sora, Segoe UI, Arial, sans-serif" font-size="44" font-weight="700" letter-spacing="1">COMMERCIAL &amp; CHARTERING</text>
  <text x="124" y="546" fill="#FED7AA" font-family="Sora, Segoe UI, Arial, sans-serif" font-size="22" opacity="0.95">Freight economics, charter contracts, and commercial performance analytics</text>
</svg>
