<svg width="1200" height="600" viewBox="0 0 1200 600" fill="none" xmlns="http://www.w3.org/2000/svg">
  <defs>
    <linearGradient id="insSky" x1="0" y1="0" x2="1200" y2="600" gradientUnits="userSpaceOnUse">
      <stop stop-color="#130B2A"/>
      <stop offset="0.54" stop-color="#34205C"/>
      <stop offset="1" stop-color="#7C3AED"/>
    </linearGradient>
    <radialGradient id="insGlow" cx="0" cy="0" r="1" gradientUnits="userSpaceOnUse" gradientTransform="translate(928 134) rotate(122) scale(390 390)">
      <stop stop-color="#DDD6FE" stop-opacity="0.62"/>
      <stop offset="1" stop-color="#DDD6FE" stop-opacity="0"/>
    </radialGradient>
  </defs>

  <rect width="1200" height="600" fill="url(#insSky)"/>
  <rect width="1200" height="600" fill="url(#insGlow)"/>

  <g opacity="0.2" stroke="#EDE9FE" stroke-width="1.2">
    <path d="M0 488 H1200"/>
    <path d="M0 438 H1200"/>
    <path d="M0 388 H1200"/>
    <path d="M0 338 H1200"/>
    <path d="M0 288 H1200"/>
    <path d="M0 238 H1200"/>
    <path d="M0 188 H1200"/>
  </g>

  <g opacity="0.92" transform="translate(118 170)">
    <rect x="0" y="0" width="472" height="268" rx="18" fill="#2A174C" stroke="#C4B5FD" stroke-opacity="0.34"/>
    <path d="M34 220 H436" stroke="#DDD6FE" stroke-opacity="0.84" stroke-width="2.4"/>
    <path d="M34 184 H334" stroke="#DDD6FE" stroke-opacity="0.62" stroke-width="2.2"/>
    <path d="M34 148 H392" stroke="#DDD6FE" stroke-opacity="0.46" stroke-width="2.2"/>
    <path d="M34 112 H242" stroke="#DDD6FE" stroke-opacity="0.4" stroke-width="2.2"/>

    <rect x="302" y="54" width="122" height="132" rx="14" fill="#4C2D80"/>
    <path d="M322 84 H402" stroke="#DDD6FE" stroke-width="2.2"/>
    <path d="M322 112 H390" stroke="#DDD6FE" stroke-width="2.2"/>
    <path d="M322 140 H374" stroke="#DDD6FE" stroke-width="2.2"/>
  </g>

  <g opacity="0.94" transform="translate(670 130)">
    <rect x="0" y="0" width="416" height="328" rx="20" fill="#341E60" stroke="#C4B5FD" stroke-opacity="0.36"/>
    <path d="M208 64 L320 108 V198 C320 260 276 310 208 332 C140 310 96 260 96 198 V108 L208 64 Z" fill="#7C5BC8"/>
    <path d="M208 96 L292 128 V194 C292 241 259 280 208 298 C157 280 124 241 124 194 V128 L208 96 Z" fill="#DDD6FE" fill-opacity="0.3"/>
    <path d="M172 196 L200 226 L252 170" stroke="#F5F3FF" stroke-width="12" stroke-linecap="round" stroke-linejoin="round"/>
  </g>

  <text x="124" y="114" fill="#F5F3FF" font-family="Sora, Segoe UI, Arial, sans-serif" font-size="44" font-weight="700" letter-spacing="1">INSURANCE</text>
  <text x="124" y="546" fill="#DDD6FE" font-family="Sora, Segoe UI, Arial, sans-serif" font-size="22" opacity="0.95">Risk controls, claims validation, and policy governance for secure operations</text>
</svg>
